<svg xmlns="http://www.w3.org/2000/svg" xmlns:xlink="http://www.w3.org/1999/xlink" style="position: absolute; width: 0; height: 0"><symbol id="icon-empty-tasks" viewBox="0 0 142.8 105.7">
	<path fill="#EAEEF9" d="M122.1,54.9c0,14.2-5.8,27-15.1,36.2c-9.1,9.1-21.7,14.6-35.6,14.6c-13.8,0-26.4-5.6-35.6-14.6
	c-9.3-9.2-15.1-22-15.1-36.2c0-28.1,22.7-50.8,50.7-50.8C99.4,4.1,122.1,26.9,122.1,54.9z"></path>
	<path fill="#EAEEF9" d="M117.7,21.6c2.3,0,4.1-1.8,4.1-4.1c0-2.3-1.8-4.1-4.1-4.1c-2.3,0-4.1,1.8-4.1,4.1
	C113.6,19.8,115.4,21.6,117.7,21.6z"></path>
	<path fill="#EAEEF9" d="M123.7,5.6c1.5,0,2.8-1.3,2.8-2.8S125.2,0,123.7,0c-1.5,0-2.8,1.3-2.8,2.8S122.2,5.6,123.7,5.6z"></path>
	<path fill="#EAEEF9" d="M22.3,21.5c1.5,0,2.8-1.3,2.8-2.8c0-1.5-1.3-2.8-2.8-2.8s-2.8,1.3-2.8,2.8C19.5,20.2,20.8,21.5,22.3,21.5z"></path>
	<path fill="#EAEEF9" d="M5.2,75.5c2.9,0,5.2-2.3,5.2-5.2s-2.3-5.2-5.2-5.2c-2.9,0-5.2,2.3-5.2,5.2S2.3,75.5,5.2,75.5z"></path>
	<path fill="#FFFFFF" d="M107,28.3v62.8c-9.1,9.1-21.7,14.6-35.6,14.6c-13.8,0-26.4-5.6-35.6-14.6V28.3H107z"></path>
	<polygon fill="#B8C2D6" points="88.8,44.2 84.1,39.5 67.9,55.6 58.7,46.4 54,51.2 67.9,65.1 68,65 68,65 "></polygon>
	<path fill="#D5DAE5" d="M89.6,73.6H53.2v4.6h36.4V73.6z"></path>
	<path fill="#D5DAE5" d="M89.6,83.7H53.2v4.6h36.4V83.7z"></path>
	<path fill="#D5DAE5" d="M80.7,93.9H62.1v4.6h18.6V93.9z"></path>
</symbol></svg>